<svg width="13" height="13" viewBox="0 0 13 13" fill="none" xmlns="http://www.w3.org/2000/svg">
<path d="M0.46967 11.0761C0.176777 11.369 0.176777 11.8439 0.46967 12.1368C0.762563 12.4297 1.23744 12.4297 1.53033 12.1368L0.46967 11.0761ZM12.3566 0.999843C12.3566 0.58563 12.0208 0.249843 11.6066 0.249843L4.8566 0.249843C4.44239 0.249843 4.1066 0.585629 4.1066 0.999843C4.1066 1.41406 4.44239 1.74984 4.8566 1.74984H10.8566V7.74984C10.8566 8.16406 11.1924 8.49984 11.6066 8.49984C12.0208 8.49984 12.3566 8.16406 12.3566 7.74984L12.3566 0.999843ZM1.53033 12.1368L12.1369 1.53017L11.0763 0.469513L0.46967 11.0761L1.53033 12.1368Z" fill="black"/>
</svg>
