<svg width="32" height="32" viewBox="0 0 32 32" fill="none" xmlns="http://www.w3.org/2000/svg">
<mask id="mask0" style="mask-type:alpha" maskUnits="userSpaceOnUse" x="0" y="0" width="32" height="32">
<circle cx="16" cy="16" r="16" fill="white"/>
</mask>
<g mask="url(#mask0)">
<path d="M12.4834 14.619C11.376 14.619 10.5017 15.669 10.5017 16.95C10.5017 18.231 11.3954 19.281 12.4834 19.281C13.5908 19.281 14.4651 18.231 14.4651 16.95C14.4846 15.669 13.5908 14.619 12.4834 14.619ZM19.5748 14.619C18.4674 14.619 17.5931 15.669 17.5931 16.95C17.5931 18.231 18.4868 19.281 19.5748 19.281C20.6823 19.281 21.5566 18.231 21.5566 16.95C21.5566 15.669 20.6823 14.619 19.5748 14.619Z" fill="white"/>
<path d="M29.0171 -3H2.98286C0.787428 -3 -1 -1.068 -1 1.326V29.718C-1 32.112 0.787428 34.044 2.98286 34.044H25.0149L23.9851 30.159L26.472 32.658L28.8229 35.01L33 39V1.326C33 -1.068 31.2126 -3 29.0171 -3ZM21.5177 24.426C21.5177 24.426 20.8183 23.523 20.2354 22.725C22.7806 21.948 23.752 20.226 23.752 20.226C22.9554 20.793 22.1977 21.192 21.5177 21.465C20.5463 21.906 19.6137 22.2 18.7006 22.368C16.8354 22.746 15.1257 22.641 13.6686 22.347C12.5611 22.116 11.6091 21.78 10.8126 21.444C10.3657 21.255 9.88 21.024 9.39429 20.73C9.336 20.688 9.27771 20.667 9.21943 20.625C9.18057 20.604 9.16114 20.583 9.14171 20.562C8.792 20.352 8.59771 20.205 8.59771 20.205C8.59771 20.205 9.53029 21.885 11.9977 22.683C11.4149 23.481 10.696 24.426 10.696 24.426C6.40228 24.279 4.77029 21.234 4.77029 21.234C4.77029 14.472 7.568 8.991 7.568 8.991C10.3657 6.723 13.0274 6.786 13.0274 6.786L13.2217 7.038C9.72457 8.13 8.112 9.789 8.112 9.789C8.112 9.789 8.53943 9.537 9.25829 9.18C11.3371 8.193 12.9886 7.92 13.6686 7.857C13.7851 7.836 13.8823 7.815 13.9989 7.815C15.184 7.647 16.5246 7.605 17.9234 7.773C19.7691 8.004 21.7509 8.592 23.7714 9.789C23.7714 9.789 22.2366 8.214 18.9337 7.122L19.2057 6.786C19.2057 6.786 21.8674 6.723 24.6651 8.991C24.6651 8.991 27.4629 14.472 27.4629 21.234C27.4629 21.234 25.8114 24.279 21.5177 24.426Z" fill="white"/>
</g>
</svg>
