<svg width="198" height="74" viewBox="0 0 198 74" fill="none" xmlns="http://www.w3.org/2000/svg">
<g clip-path="url(#clip0_759_364)">
<path d="M54.4983 0C58.1386 0 61.2419 1.28032 63.8079 3.84095C66.374 6.40158 67.6535 9.50677 67.6465 13.1565V32.8435C67.6465 36.4932 66.367 39.5984 63.8079 42.1591C61.2489 44.7197 58.1457 46 54.4983 46H2.36621C2.31868 45.9992 2.2718 45.9889 2.22839 45.9695C2.18497 45.9502 2.14591 45.9223 2.11356 45.8874C2.07485 45.8476 2.04469 45.8004 2.02497 45.7485C2.00525 45.6966 1.99639 45.6412 1.99892 45.5857V0.424883C1.99519 0.368027 2.00347 0.311024 2.02323 0.257584C2.04298 0.204144 2.07376 0.155466 2.11356 0.114719C2.14573 0.0794875 2.1847 0.0511549 2.22813 0.0314362C2.27155 0.0117175 2.31853 0.00102289 2.36621 0L54.4983 0ZM58.4514 11.8224C58.4573 11.305 58.3586 10.7918 58.1612 10.3135C57.9638 9.83526 57.6719 9.40187 57.3028 9.03939C56.9425 8.65915 56.5072 8.35799 56.0244 8.15502C55.5416 7.95205 55.0219 7.8517 54.4983 7.86034H11.1876V38.1354H54.4983C55.0213 38.1455 55.5407 38.0467 56.0235 37.8452C56.5064 37.6437 56.942 37.3439 57.3028 36.9649C57.672 36.6025 57.964 36.1691 58.1614 35.6908C58.3588 35.2126 58.4574 34.6993 58.4514 34.1819V11.8224Z" fill="white"/>
<path d="M114.523 11.9434C115.798 11.9389 117.061 12.1868 118.239 12.6728C119.417 13.1588 120.488 13.8733 121.389 14.7751C122.291 15.6769 123.005 16.7483 123.49 17.9274C123.976 19.1066 124.224 20.3703 124.219 21.6456V36.166C124.223 37.4414 123.975 38.705 123.49 39.8842C123.004 41.0633 122.29 42.1347 121.389 43.0367C120.488 43.9386 119.417 44.6533 118.239 45.1396C117.06 45.6259 115.798 45.8743 114.523 45.8704H85.471C84.1975 45.8704 82.9365 45.6193 81.76 45.1316C80.5834 44.6439 79.5145 43.9291 78.6141 43.0279C77.7137 42.1267 76.9995 41.0569 76.5124 39.8796C76.0252 38.7022 75.7746 37.4403 75.7749 36.166V21.6456C75.7743 20.3714 76.0248 19.1095 76.5118 17.9321C76.9989 16.7547 77.7131 15.6849 78.6136 14.7839C79.514 13.8828 80.5832 13.1682 81.7598 12.6808C82.9364 12.1934 84.1975 11.9429 85.471 11.9434H114.523ZM117.438 20.6535C117.442 20.2718 117.369 19.8933 117.223 19.5406C117.077 19.1879 116.861 18.8684 116.589 18.6013C116.322 18.3234 116.001 18.1038 115.646 17.9564C115.29 17.809 114.908 17.7371 114.523 17.7452H85.471C84.7008 17.7546 83.9648 18.0649 83.4201 18.6099C82.8755 19.1549 82.5654 19.8913 82.556 20.662V37.1518C82.5654 37.9224 82.8755 38.6589 83.4201 39.2039C83.9648 39.7489 84.7008 40.0592 85.471 40.0686H114.523C114.909 40.0753 115.292 40.002 115.648 39.8532C116.004 39.7044 116.325 39.4833 116.591 39.2039C116.863 38.9366 117.079 38.6171 117.225 38.2645C117.371 37.9119 117.444 37.5334 117.44 37.1518L117.438 20.6535Z" fill="white"/>
<path d="M184.854 0C188.495 0 191.598 1.28032 194.161 3.84095C196.725 6.40158 198.004 9.50677 198 13.1565V32.8435C198 36.4932 196.72 39.5984 194.161 42.1591C191.602 44.7197 188.5 46 184.854 46H132.722C132.674 45.9992 132.627 45.9886 132.583 45.9689C132.54 45.9492 132.501 45.9207 132.469 45.8853C132.431 45.8458 132.401 45.7988 132.381 45.7473C132.361 45.6958 132.352 45.6408 132.354 45.5857V0.424883C132.352 0.369779 132.361 0.314797 132.381 0.263295C132.401 0.211793 132.431 0.164853 132.469 0.125341C132.5 0.087973 132.539 0.0575178 132.582 0.0359318C132.626 0.0143457 132.673 0.00210633 132.722 0L184.854 0ZM188.807 11.8224C188.812 11.3049 188.713 10.7916 188.515 10.3133C188.318 9.83508 188.025 9.40177 187.656 9.03939C187.296 8.65931 186.861 8.35824 186.379 8.15527C185.896 7.9523 185.377 7.85187 184.854 7.86034H141.543V38.1354H184.854C185.377 38.1448 185.896 38.0452 186.378 37.843C186.861 37.6407 187.296 37.3402 187.656 36.9606C188.026 36.5983 188.318 36.165 188.516 35.6867C188.713 35.2085 188.812 34.6952 188.807 34.1776V11.8224Z" fill="white"/>
<path d="M124.226 0.558716H75.7749V4.80755H124.226V0.558716Z" fill="white"/>
</g>
<path d="M14.87 58.5H0V61.8571H5.45994V73.5H9.41006V61.8571H14.87V58.5Z" fill="white"/>
<path d="M26.9412 58.5V64.3214H20.1645V58.5H16.1969V73.5H20.1645V67.6786H26.9412V73.5H30.9089V58.5H26.9412Z" fill="white"/>
<path d="M32.3059 73.5H45.0165V70.2321H36.2736V67.3929H44.7005V64.5893H36.2736V61.7679H45.0165V58.5H32.3059V73.5Z" fill="white"/>
<path d="M57.8917 58.5H50.9044V73.5H57.8917C63.7204 73.5 65.8622 70.2679 65.8622 66C65.8622 61.7143 63.7204 58.5 57.8917 58.5ZM57.8917 70.1071H54.8721L54.8896 61.875H57.8917C60.4374 61.875 61.8945 63.2679 61.8945 66C61.8945 68.7143 60.4374 70.1071 57.8917 70.1071Z" fill="white"/>
<path d="M73.2053 74C77.2256 74 79.6835 72.25 79.6835 67.2679V58.5H75.7334V67.4464C75.7334 69.9821 74.4693 70.5714 73.2755 70.5714C72.0115 70.5714 70.8703 69.9464 70.8703 67.9107H66.9202C66.8676 72.5357 69.5361 74 73.2053 74Z" fill="white"/>
<path d="M80.8225 73.5H94.1124V70.125H85.8435V69.8214L94.2178 61.75V58.5H81.0331V61.8571H89.1265V62.1786L80.8225 70.2321V73.5Z" fill="white"/>
<path d="M107.784 74C112.682 74 115.965 70.7321 115.965 66C115.965 61.25 112.682 58 107.784 58C102.869 58 99.5855 61.25 99.5855 66C99.5855 70.7321 102.869 74 107.784 74ZM107.784 70.5179C105.379 70.5179 103.518 68.75 103.518 66C103.518 63.2321 105.379 61.4821 107.784 61.4821C110.172 61.4821 112.05 63.2321 112.05 66C112.05 68.75 110.172 70.5179 107.784 70.5179Z" fill="white"/>
<path d="M117.11 73.5H121.078V67.875H129.347V64.8929H121.078V61.8571H129.803V58.5H117.11V73.5Z" fill="white"/>
<path d="M142.675 58.5H135.688V73.5H142.675C148.504 73.5 150.646 70.2679 150.646 66C150.646 61.7143 148.504 58.5 142.675 58.5ZM142.675 70.1071H139.656L139.673 61.875H142.675C145.221 61.875 146.678 63.2679 146.678 66C146.678 68.7143 145.221 70.1071 142.675 70.1071Z" fill="white"/>
<path d="M167.399 65.4464H159.622V67.9107H163.554C163.063 70.0179 161.044 70.5179 159.832 70.5179C157.41 70.5179 155.549 68.6786 155.549 66C155.549 63.3214 157.374 61.4821 159.938 61.4821C161.588 61.4821 162.817 62.2857 163.291 63.4464H167.223C166.504 59.5893 163.168 58 159.867 58C154.917 58 151.616 61.25 151.616 66C151.616 70.7321 155.057 74 159.534 74C162.15 74 163.993 72.9107 165.011 71.3929L165.064 73.5H167.399V65.4464Z" fill="white"/>
<path d="M168.894 73.5H181.604V70.2321H172.861V67.3929H181.288V64.5893H172.861V61.7679H181.604V58.5H168.894V73.5Z" fill="white"/>
<path d="M183.007 73.5H186.869V64.0714H187.238L193.523 73.5H198V58.5H194.138V67.9286H193.787L187.589 58.5H183.007V73.5Z" fill="white"/>
<defs>
<clipPath id="clip0_759_364">
<rect width="196" height="46" fill="white" transform="translate(2)"/>
</clipPath>
</defs>
</svg>
