<svg width="140" height="33" viewBox="0 0 140 33" fill="none" xmlns="http://www.w3.org/2000/svg">
<g clip-path="url(#clip0_319_10)">
<path d="M37.4084 0C40.0023 0 42.2135 0.918487 44.042 2.75546C45.8705 4.59244 46.7822 6.82007 46.7772 9.43837V23.5616C46.7772 26.1799 45.8654 28.4076 44.042 30.2445C42.2186 32.0815 40.0074 33 37.4084 33H0.261419C0.227556 32.9995 0.194151 32.992 0.163213 32.9781C0.132276 32.9643 0.104445 32.9442 0.0813948 32.9192C0.0538075 32.8907 0.0323235 32.8568 0.0182721 32.8196C0.00422065 32.7823 -0.00209926 32.7426 -0.000296672 32.7028V0.304808C-0.00295073 0.26402 0.00295191 0.223126 0.017027 0.184788C0.031102 0.146451 0.053034 0.11153 0.0813948 0.0822981C0.104314 0.0570236 0.132086 0.0366981 0.16303 0.022552C0.193974 0.008406 0.227446 0.00073381 0.261419 0L37.4084 0ZM40.2252 8.48127C40.2294 8.1101 40.159 7.74191 40.0184 7.39882C39.8778 7.05573 39.6697 6.74482 39.4068 6.48478C39.15 6.212 38.8398 5.99595 38.4958 5.85034C38.1518 5.70473 37.7815 5.63274 37.4084 5.63894H6.54713V27.358H37.4084C37.781 27.3653 38.1512 27.2944 38.4952 27.1498C38.8392 27.0052 39.1497 26.7902 39.4068 26.5183C39.6698 26.2583 39.8779 25.9474 40.0185 25.6043C40.1592 25.2612 40.2295 24.893 40.2252 24.5218V8.48127Z" fill="white"/>
<path d="M80.1787 8.5684C81.0869 8.56518 81.9867 8.74301 82.8264 9.09166C83.6661 9.4403 84.429 9.95287 85.0712 10.5998C85.7134 11.2468 86.2222 12.0154 86.5683 12.8613C86.9143 13.7072 87.0909 14.6137 87.0877 15.5287V25.9455C87.0907 26.8604 86.914 27.767 86.5679 28.6129C86.2218 29.4588 85.713 30.2274 85.0708 30.8744C84.4287 31.5215 83.6659 32.0342 82.8263 32.3831C81.9867 32.732 81.0869 32.9101 80.1787 32.9073H59.4775C58.57 32.9073 57.6715 32.7272 56.8332 32.3773C55.9948 32.0274 55.2331 31.5146 54.5915 30.8681C53.95 30.2217 53.4411 29.4542 53.094 28.6095C52.7468 27.7649 52.5683 26.8597 52.5685 25.9455V15.5287C52.5681 14.6145 52.7465 13.7093 53.0936 12.8646C53.4407 12.02 53.9496 11.2525 54.5912 10.6061C55.2328 9.95973 55.9946 9.44705 56.833 9.09741C57.6715 8.74776 58.5701 8.568 59.4775 8.5684H80.1787ZM82.2558 14.817C82.2587 14.5431 82.2066 14.2715 82.1026 14.0185C81.9986 13.7655 81.8449 13.5363 81.6506 13.3447C81.4608 13.1453 81.232 12.9878 80.9786 12.8821C80.7253 12.7763 80.4529 12.7248 80.1787 12.7306H59.4775C58.9287 12.7373 58.4042 12.9599 58.0161 13.3509C57.628 13.7418 57.4071 14.2702 57.4004 14.8231V26.6526C57.4071 27.2055 57.628 27.7339 58.0161 28.1248C58.4042 28.5158 58.9287 28.7384 59.4775 28.7451H80.1787C80.4535 28.75 80.7264 28.6974 80.98 28.5906C81.2336 28.4839 81.4625 28.3253 81.6522 28.1249C81.8462 27.9331 81.9998 27.7039 82.1037 27.4509C82.2077 27.1979 82.2599 26.9264 82.2573 26.6526L82.2558 14.817Z" fill="white"/>
<path d="M130.293 0C132.888 0 135.099 0.918487 136.926 2.75546C138.752 4.59244 139.664 6.82007 139.661 9.43837V23.5616C139.661 26.1799 138.749 28.4076 136.926 30.2445C135.102 32.0815 132.891 33 130.293 33H93.1465C93.1125 32.9994 93.079 32.9919 93.048 32.9777C93.0171 32.9635 92.9893 32.9431 92.9665 32.9177C92.9391 32.8894 92.9177 32.8557 92.9037 32.8187C92.8896 32.7818 92.8832 32.7423 92.8848 32.7028V0.304808C92.8832 0.265276 92.8896 0.225833 92.9037 0.188886C92.9177 0.151939 92.9391 0.118264 92.9665 0.0899183C92.9886 0.0631111 93.0161 0.0412628 93.0471 0.0257771C93.0781 0.0102915 93.112 0.00151106 93.1465 0L130.293 0ZM133.11 8.48127C133.114 8.11001 133.044 7.74177 132.903 7.39869C132.762 7.0556 132.554 6.74475 132.29 6.48478C132.034 6.21211 131.724 5.99613 131.38 5.85052C131.036 5.70491 130.666 5.63286 130.293 5.63894H99.4322V27.358H130.293C130.666 27.3648 131.036 27.2933 131.38 27.1482C131.724 27.0031 132.034 26.7876 132.29 26.5152C132.554 26.2553 132.762 25.9445 132.903 25.6014C133.044 25.2583 133.114 24.89 133.11 24.5187V8.48127Z" fill="white"/>
<path d="M87.0922 0.400879H52.5685V3.44896H87.0922V0.400879Z" fill="white"/>
</g>
<defs>
<clipPath id="clip0_319_10">
<rect width="139.661" height="33" fill="white"/>
</clipPath>
</defs>
</svg>
