<svg width="196" height="46" viewBox="0 0 196 46" fill="none" xmlns="http://www.w3.org/2000/svg">
<g clip-path="url(#clip0)">
<path d="M52.4983 0C56.1386 0 59.2419 1.28032 61.8079 3.84095C64.374 6.40158 65.6535 9.50677 65.6465 13.1565V32.8435C65.6465 36.4932 64.367 39.5984 61.8079 42.1591C59.2489 44.7197 56.1457 46 52.4983 46H0.366207C0.318684 45.9992 0.271803 45.9889 0.228385 45.9695C0.184967 45.9502 0.14591 45.9223 0.113561 45.8874C0.0748452 45.8476 0.0446945 45.8004 0.0249748 45.7485C0.005255 45.6966 -0.00361438 45.6412 -0.00108462 45.5857V0.424883C-0.00480934 0.368027 0.00347445 0.311024 0.0232274 0.257584C0.0429804 0.204144 0.0737597 0.155466 0.113561 0.114719C0.145726 0.0794875 0.184701 0.0511549 0.228128 0.0314362C0.271555 0.0117175 0.318529 0.00102289 0.366207 0L52.4983 0ZM56.4514 11.8224C56.4573 11.305 56.3586 10.7918 56.1612 10.3135C55.9638 9.83526 55.6719 9.40187 55.3028 9.03939C54.9425 8.65915 54.5072 8.35799 54.0244 8.15502C53.5416 7.95205 53.0219 7.8517 52.4983 7.86034H9.18758V38.1354H52.4983C53.0213 38.1455 53.5407 38.0467 54.0235 37.8452C54.5064 37.6437 54.942 37.3439 55.3028 36.9649C55.672 36.6025 55.964 36.1691 56.1614 35.6908C56.3588 35.2126 56.4574 34.6993 56.4514 34.1819V11.8224Z" fill="white"/>
<path d="M112.523 11.9435C113.797 11.939 115.06 12.1869 116.239 12.6729C117.417 13.1589 118.488 13.8733 119.389 14.7752C120.29 15.677 121.004 16.7484 121.49 17.9275C121.976 19.1067 122.223 20.3703 122.219 21.6457V36.1661C122.223 37.4415 121.975 38.7051 121.489 39.8843C121.004 41.0634 120.29 42.1348 119.389 43.0367C118.487 43.9387 117.417 44.6534 116.239 45.1397C115.06 45.626 113.797 45.8743 112.523 45.8704H83.4707C82.1973 45.8704 80.9362 45.6194 79.7597 45.1317C78.5832 44.644 77.5142 43.9291 76.6138 43.028C75.7134 42.1268 74.9993 41.057 74.5121 39.8796C74.025 38.7022 73.7744 37.4404 73.7747 36.1661V21.6457C73.7741 20.3714 74.0245 19.1095 74.5116 17.9322C74.9987 16.7548 75.7129 15.685 76.6133 14.7839C77.5138 13.8829 78.5829 13.1683 79.7596 12.6809C80.9362 12.1935 82.1973 11.9429 83.4707 11.9435H112.523ZM115.438 20.6536C115.442 20.2719 115.369 19.8933 115.223 19.5406C115.077 19.188 114.861 18.8685 114.589 18.6014C114.322 18.3234 114.001 18.1038 113.646 17.9565C113.29 17.8091 112.908 17.7372 112.523 17.7453H83.4707C82.7005 17.7546 81.9645 18.0649 81.4199 18.6099C80.8752 19.1549 80.5651 19.8914 80.5558 20.6621V37.1518C80.5651 37.9225 80.8752 38.659 81.4199 39.204C81.9645 39.749 82.7005 40.0593 83.4707 40.0686H112.523C112.909 40.0754 113.291 40.0021 113.647 39.8532C114.003 39.7044 114.325 39.4833 114.591 39.204C114.863 38.9367 115.079 38.6172 115.224 38.2646C115.37 37.9119 115.444 37.5335 115.44 37.1518L115.438 20.6536Z" fill="white"/>
<path d="M182.854 0C186.496 0 189.598 1.28032 192.162 3.84095C194.725 6.40158 196.004 9.50677 196 13.1565V32.8435C196 36.4932 194.721 39.5984 192.162 42.1591C189.602 44.7197 186.5 46 182.854 46H130.722C130.674 45.9992 130.627 45.9886 130.584 45.9689C130.54 45.9492 130.501 45.9207 130.469 45.8853C130.431 45.8458 130.401 45.7988 130.381 45.7473C130.361 45.6958 130.352 45.6408 130.355 45.5857V0.424883C130.352 0.369779 130.361 0.314797 130.381 0.263295C130.401 0.211793 130.431 0.164853 130.469 0.125341C130.5 0.087973 130.539 0.0575178 130.582 0.0359318C130.626 0.0143457 130.673 0.00210633 130.722 0L182.854 0ZM186.807 11.8224C186.813 11.3049 186.713 10.7916 186.516 10.3133C186.318 9.83508 186.026 9.40177 185.656 9.03939C185.296 8.65931 184.861 8.35824 184.379 8.15527C183.897 7.9523 183.377 7.85187 182.854 7.86034H139.543V38.1354H182.854C183.377 38.1448 183.896 38.0452 184.379 37.843C184.861 37.6407 185.296 37.3402 185.656 36.9606C186.026 36.5983 186.318 36.165 186.516 35.6867C186.714 35.2085 186.813 34.6952 186.807 34.1776V11.8224Z" fill="white"/>
<path d="M122.225 0.558716H73.7747V4.80755H122.225V0.558716Z" fill="white"/>
</g>
<defs>
<clipPath id="clip0">
<rect width="196" height="46" fill="white"/>
</clipPath>
</defs>
</svg>
