<svg width="160" height="55" viewBox="0 0 160 55" fill="none" xmlns="http://www.w3.org/2000/svg">
<path d="M13.8395 20.42C18.1595 20.435 20.2895 19.07 20.2895 16.325C20.2895 12.875 16.8545 12.8 14.3495 12.38L13.0145 12.155C12.0545 12.005 11.8295 11.57 11.8295 11.21C11.8295 10.64 12.3995 10.22 13.7795 10.22C15.3695 10.22 16.0745 10.745 16.2245 11.585H19.9295C20.0045 7.985 17.4845 6.98 13.8695 6.98C9.86445 6.98 7.83945 8.51 7.83945 11C7.83945 14.225 10.7045 14.51 13.0895 14.9L14.7095 15.155C15.9395 15.335 16.1645 15.755 16.1645 16.16C16.1645 16.745 15.4295 17.195 13.8395 17.18C12.0395 17.165 11.3195 16.64 11.2745 15.785H7.53945C7.43445 19.055 9.48945 20.405 13.8395 20.42ZM27.9308 20.42C31.0358 20.42 34.1558 19.07 34.5758 14.78H30.6158C30.2708 16.19 29.2958 16.835 27.9308 16.835C26.2808 16.835 24.9758 15.605 24.9758 13.7C24.9758 11.795 26.2808 10.565 27.9308 10.565C29.2958 10.565 30.2708 11.21 30.6158 12.59H34.5758C34.1558 8.33 31.0058 6.98 27.9308 6.98C23.6858 6.98 20.8508 9.665 20.8508 13.7C20.8508 17.735 23.6858 20.42 27.9308 20.42ZM48.497 20L46.247 15.86C47.312 15.11 48.077 13.91 48.077 12.215C48.077 8.9 46.112 7.4 42.617 7.4H35.402V20H39.557V16.745H42.707L44.417 20H48.497ZM39.557 10.85H42.332C43.382 10.85 43.922 11.36 43.922 12.245C43.922 13.13 43.382 13.64 42.332 13.64H39.557V10.85ZM55.8697 20.42C60.2047 20.42 63.0097 17.735 63.0097 13.7C63.0097 9.665 60.2047 6.98 55.8697 6.98C51.5347 6.98 48.7297 9.665 48.7297 13.7C48.7297 17.735 51.5347 20.42 55.8697 20.42ZM55.8697 16.835C54.2197 16.835 52.8547 15.695 52.8547 13.7C52.8547 11.705 54.2197 10.565 55.8697 10.565C57.5197 10.565 58.8847 11.705 58.8847 13.7C58.8847 15.695 57.5197 16.835 55.8697 16.835ZM63.8434 20H74.7184V16.535H67.9984V7.4H63.8434V20ZM75.7613 20H86.6363V16.535H79.9163V7.4H75.7613V20ZM97.4546 7.4H91.1246V20H97.4546C102.585 20 104.385 17.315 104.385 13.7C104.385 10.07 102.585 7.4 97.4546 7.4ZM97.4546 16.52H95.2946V10.88H97.4546C99.0746 10.88 100.215 11.675 100.215 13.7C100.215 15.71 99.0746 16.52 97.4546 16.52ZM112.208 20.42C116.543 20.42 119.348 17.735 119.348 13.7C119.348 9.665 116.543 6.98 112.208 6.98C107.873 6.98 105.068 9.665 105.068 13.7C105.068 17.735 107.873 20.42 112.208 20.42ZM112.208 16.835C110.558 16.835 109.193 15.695 109.193 13.7C109.193 11.705 110.558 10.565 112.208 10.565C113.858 10.565 115.223 11.705 115.223 13.7C115.223 15.695 113.858 16.835 112.208 16.835ZM121.645 20H127.255L128.395 13.94H128.755L129.895 20H135.505L137.95 7.4H133.735L132.385 15.56H132.025L130.225 7.4H126.925L125.125 15.56H124.765L123.415 7.4H119.2L121.645 20ZM138.779 20H142.829V13.19H143.204L147.494 20H152.159V7.4H148.109V14.21H147.734L143.549 7.4H138.779V20Z" fill="white"/>
<path d="M81 34C81 33.4477 80.5523 33 80 33C79.4477 33 79 33.4477 79 34L81 34ZM79.2929 54.7071C79.6834 55.0976 80.3166 55.0976 80.7071 54.7071L87.0711 48.3431C87.4616 47.9526 87.4616 47.3195 87.0711 46.9289C86.6805 46.5384 86.0474 46.5384 85.6569 46.9289L80 52.5858L74.3431 46.9289C73.9526 46.5384 73.3195 46.5384 72.9289 46.9289C72.5384 47.3195 72.5384 47.9526 72.9289 48.3431L79.2929 54.7071ZM79 34L79 54L81 54L81 34L79 34Z" fill="white"/>
</svg>
