<svg width="920" height="149" viewBox="0 0 920 149" fill="none" xmlns="http://www.w3.org/2000/svg">
<g filter="url(#filter0_d_558_4)">
<path d="M366.102 0.451165C366.102 0.317487 366.135 0.217228 366.202 0.150388C366.302 0.0501295 366.403 0 366.503 0H437.283C437.383 0 437.467 0.0501295 437.533 0.150388C437.634 0.217228 437.684 0.317487 437.684 0.451165V8.17111C437.684 8.27137 437.634 8.37162 437.533 8.47188C437.467 8.53872 437.383 8.57214 437.283 8.57214H406.906V49.6783C406.906 49.812 406.855 49.929 406.755 50.0292C406.688 50.0961 406.605 50.1295 406.505 50.1295H397.331C397.198 50.1295 397.081 50.0961 396.98 50.0292C396.913 49.929 396.88 49.812 396.88 49.6783V8.57214H366.503C366.403 8.57214 366.302 8.53872 366.202 8.47188C366.135 8.37162 366.102 8.27137 366.102 8.17111V0.451165Z" fill="white"/>
<path d="M524.354 0.451165C524.354 0.317487 524.304 0.217228 524.204 0.150388C524.137 0.0501295 524.037 0 523.903 0H514.78C514.646 0 514.529 0.0501295 514.429 0.150388C514.362 0.217228 514.329 0.317487 514.329 0.451165V20.7536H462.748V0.451165C462.748 0.317487 462.697 0.217228 462.597 0.150388C462.53 0.0501295 462.447 0 462.347 0H453.173C453.04 0 452.923 0.0501295 452.822 0.150388C452.755 0.217228 452.722 0.317487 452.722 0.451165V49.7285C452.722 49.8287 452.755 49.929 452.822 50.0292C452.923 50.0961 453.04 50.1295 453.173 50.1295H462.347C462.447 50.1295 462.53 50.0961 462.597 50.0292C462.697 49.929 462.748 49.8287 462.748 49.7285V29.3759H514.329V49.7285C514.329 49.8287 514.362 49.929 514.429 50.0292C514.529 50.0961 514.646 50.1295 514.78 50.1295H523.903C524.037 50.1295 524.137 50.0961 524.204 50.0292C524.304 49.929 524.354 49.8287 524.354 49.7285V0.451165Z" fill="white"/>
<path d="M549.468 12.8833C549.468 11.7136 549.886 10.711 550.721 9.87551C551.557 9.0066 552.576 8.57214 553.779 8.57214H610.624C610.757 8.57214 610.858 8.53872 610.924 8.47188C611.025 8.37162 611.075 8.27137 611.075 8.17111V0.451165C611.075 0.317487 611.025 0.217228 610.924 0.150388C610.858 0.0501295 610.757 0 610.624 0H553.779C549.802 0 546.41 1.40363 543.603 4.21088C540.829 6.98471 539.443 10.3601 539.443 14.337V35.7925C539.443 39.7694 540.829 43.1615 543.603 45.9687C546.41 48.7426 549.802 50.1295 553.779 50.1295H610.624C610.757 50.1295 610.858 50.0961 610.924 50.0292C611.025 49.929 611.075 49.812 611.075 49.6783V41.9584C611.075 41.8581 611.025 41.7746 610.924 41.7077C610.858 41.6075 610.757 41.5573 610.624 41.5573H553.779C552.576 41.5573 551.557 41.1396 550.721 40.3041C549.886 39.4352 549.468 38.4159 549.468 37.2462V29.3759H603.455C603.589 29.3759 603.689 29.3425 603.756 29.2756C603.857 29.1754 603.907 29.0584 603.907 28.9247V21.2048C603.907 21.0711 603.857 20.9708 603.756 20.904C603.689 20.8037 603.589 20.7536 603.455 20.7536H549.468V12.8833Z" fill="white"/>
<path d="M84.5078 69.1704C90.0311 69.1704 94.7189 71.1199 98.5713 75.0188C102.47 78.8714 104.42 83.5594 104.42 89.0829V118.882C104.42 124.406 102.47 129.117 98.5713 133.016C94.7189 136.868 90.0311 138.795 84.5078 138.795H5.55697C5.41773 138.795 5.27849 138.748 5.13924 138.655C5.04641 138.516 5 138.354 5 138.168V69.797C5 69.6113 5.04641 69.4721 5.13924 69.3793C5.27849 69.24 5.41773 69.1704 5.55697 69.1704H84.5078ZM90.4952 87.0638C90.4952 85.4393 89.915 84.0468 88.7547 82.8864C87.5943 81.6796 86.1787 81.0761 84.5078 81.0761H18.9243V126.889H84.5078C86.1787 126.889 87.5943 126.309 88.7547 125.148C89.915 123.941 90.4952 122.526 90.4952 120.901V87.0638Z" fill="white"/>
<path d="M224.795 69.797C224.795 69.6113 224.726 69.4721 224.586 69.3793C224.493 69.24 224.354 69.1704 224.169 69.1704H211.497C211.312 69.1704 211.149 69.24 211.01 69.3793C210.917 69.4721 210.871 69.6113 210.871 69.797V120.901C210.871 122.572 210.291 123.988 209.13 125.148C207.97 126.309 206.554 126.889 204.883 126.889H145.218C143.593 126.889 142.178 126.309 140.971 125.148C139.81 123.988 139.23 122.572 139.23 120.901V97.6467C139.23 97.4611 139.161 97.3218 139.021 97.229C138.929 97.0897 138.813 97.0201 138.673 97.0201H125.933C125.747 97.0201 125.584 97.0897 125.445 97.229C125.352 97.3218 125.306 97.4611 125.306 97.6467V118.952C125.306 124.429 127.255 129.117 131.154 133.016C135.053 136.868 139.741 138.795 145.218 138.795H204.883C210.407 138.795 215.095 136.868 218.947 133.016C222.846 129.117 224.795 124.429 224.795 118.952V69.797Z" fill="white"/>
<path d="M343.221 69.7274C343.221 69.5881 343.152 69.4721 343.012 69.3793C342.92 69.24 342.78 69.1704 342.595 69.1704H248.327C248.188 69.1704 248.049 69.24 247.909 69.3793C247.817 69.4721 247.77 69.5881 247.77 69.7274V80.5191C247.77 80.6584 247.817 80.7976 247.909 80.9369C248.049 81.0297 248.188 81.0761 248.327 81.0761H329.297V85.0447C329.297 86.4836 328.856 87.7369 327.974 88.8044C327.092 89.872 325.955 90.5683 324.563 90.8932L259.884 104.748C255.707 105.723 252.296 107.835 249.65 111.084C247.051 114.333 245.751 118.07 245.751 122.294V138.168C245.751 138.354 245.798 138.516 245.89 138.655C246.03 138.748 246.192 138.795 246.378 138.795H340.645C340.785 138.795 340.901 138.748 340.993 138.655C341.133 138.516 341.202 138.354 341.202 138.168V127.446C341.202 127.26 341.133 127.121 340.993 127.028C340.901 126.889 340.785 126.819 340.645 126.819H259.676V122.851C259.676 121.458 260.116 120.228 260.998 119.161C261.88 118.093 263.017 117.397 264.41 117.072L329.088 103.217C333.265 102.242 336.654 100.13 339.253 96.8809C341.899 93.6317 343.221 89.8952 343.221 85.6713V69.7274Z" fill="white"/>
<path d="M382.997 66.7237H387.207C392.545 66.7237 396.275 67.6477 398.397 69.4957C400.587 71.2752 401.682 74.9027 401.682 80.3782V125.346C401.682 130.821 400.587 134.483 398.397 136.331C396.275 138.11 392.545 139 387.207 139H382.997C377.659 139 373.895 138.11 371.705 136.331C369.583 134.483 368.522 130.821 368.522 125.346V80.3782C368.522 74.9027 369.583 71.2752 371.705 69.4957C373.895 67.6477 377.659 66.7237 382.997 66.7237ZM383.203 133.148H387.104C389.773 133.148 391.724 132.669 392.956 131.711C394.256 130.753 394.906 128.733 394.906 125.654V80.0702C394.906 76.9902 394.256 74.9711 392.956 74.0129C391.724 73.0547 389.773 72.5756 387.104 72.5756H383.203C380.534 72.5756 378.549 73.0547 377.248 74.0129C376.016 74.9711 375.4 76.9902 375.4 80.0702V125.654C375.4 128.733 376.016 130.753 377.248 131.711C378.549 132.669 380.534 133.148 383.203 133.148Z" fill="white"/>
<path d="M417.818 106.25V138.795H410.94V66.929H437.94V72.781H417.818V100.09H436.605V106.25H417.818Z" fill="white"/>
<path d="M534.447 69.1704C539.97 69.1704 544.658 71.1199 548.51 75.0188C552.409 78.8714 554.358 83.5594 554.358 89.0829V118.882C554.358 124.406 552.409 129.117 548.51 133.016C544.658 136.868 539.97 138.795 534.447 138.795H455.496C455.357 138.795 455.217 138.748 455.078 138.655C454.985 138.516 454.939 138.354 454.939 138.168V69.797C454.939 69.6113 454.985 69.4721 455.078 69.3793C455.217 69.24 455.357 69.1704 455.496 69.1704H534.447ZM540.434 87.0638C540.434 85.4393 539.854 84.0468 538.693 82.8864C537.533 81.6796 536.117 81.0761 534.447 81.0761H468.863V126.889H534.447C536.117 126.889 537.533 126.309 538.693 125.148C539.854 123.941 540.434 122.526 540.434 120.901V87.0638Z" fill="white"/>
<path d="M594.602 126.889C592.931 126.889 591.515 126.309 590.355 125.148C589.195 123.941 588.614 122.526 588.614 120.901V87.0638C588.614 85.4393 589.195 84.0468 590.355 82.8864C591.515 81.6796 592.931 81.0761 594.602 81.0761H673.553C673.738 81.0761 673.878 81.0297 673.97 80.9369C674.11 80.7976 674.179 80.6584 674.179 80.5191V69.797C674.179 69.6113 674.11 69.4721 673.97 69.3793C673.878 69.24 673.738 69.1704 673.553 69.1704H594.602C589.078 69.1704 584.367 71.1199 580.469 75.0188C576.616 78.8714 574.69 83.5594 574.69 89.0829V118.882C574.69 124.406 576.616 129.117 580.469 133.016C584.367 136.868 589.078 138.795 594.602 138.795H656.217C661.183 138.795 665.407 137.054 668.888 133.573C672.415 130.045 674.179 125.821 674.179 120.901V104.609C674.179 104.423 674.11 104.284 673.97 104.191C673.878 104.052 673.738 103.983 673.553 103.983H660.812C660.673 103.983 660.533 104.052 660.394 104.191C660.301 104.284 660.255 104.423 660.255 104.609V120.901C660.255 122.526 659.651 123.941 658.445 125.148C657.284 126.309 655.892 126.889 654.267 126.889H594.602Z" fill="white"/>
<path d="M709.06 87.0638C709.06 85.4393 709.64 84.0468 710.8 82.8864C711.96 81.6796 713.376 81.0761 715.047 81.0761H793.998C794.183 81.0761 794.323 81.0297 794.416 80.9369C794.555 80.7976 794.624 80.6584 794.624 80.5191V69.797C794.624 69.6113 794.555 69.4721 794.416 69.3793C794.323 69.24 794.183 69.1704 793.998 69.1704H715.047C709.524 69.1704 704.813 71.1199 700.914 75.0188C697.061 78.8714 695.135 83.5594 695.135 89.0829V118.882C695.135 124.406 697.061 129.117 700.914 133.016C704.813 136.868 709.524 138.795 715.047 138.795H793.998C794.183 138.795 794.323 138.748 794.416 138.655C794.555 138.516 794.624 138.354 794.624 138.168V127.446C794.624 127.307 794.555 127.191 794.416 127.098C794.323 126.959 794.183 126.889 793.998 126.889H715.047C713.376 126.889 711.96 126.309 710.8 125.148C709.64 123.941 709.06 122.526 709.06 120.901V109.97H784.042C784.228 109.97 784.367 109.924 784.46 109.831C784.599 109.692 784.669 109.529 784.669 109.344V98.6215C784.669 98.4358 784.599 98.2965 784.46 98.2037C784.367 98.0645 784.228 97.9948 784.042 97.9948H709.06V87.0638Z" fill="white"/>
<path d="M901.076 69.797C901.076 69.6113 901.122 69.4721 901.215 69.3793C901.354 69.24 901.517 69.1704 901.702 69.1704H914.443C914.582 69.1704 914.698 69.24 914.791 69.3793C914.93 69.4721 915 69.6113 915 69.797V138.238C915 138.377 914.93 138.516 914.791 138.655C914.698 138.748 914.582 138.795 914.443 138.795H888.544H888.405C883.067 138.655 878.866 136.404 875.803 132.041L843.429 83.7915C842.083 82.0277 840.412 81.1458 838.416 81.1458H829.505V138.238C829.505 138.377 829.435 138.516 829.296 138.655C829.203 138.748 829.064 138.795 828.878 138.795H816.137C815.998 138.795 815.859 138.748 815.72 138.655C815.627 138.516 815.581 138.377 815.581 138.238V69.797C815.581 69.6113 815.627 69.4721 815.72 69.3793C815.859 69.24 815.998 69.1704 816.137 69.1704H842.037H842.176C847.514 69.356 851.714 71.6304 854.777 75.9936L887.151 124.174C888.451 125.984 890.122 126.889 892.164 126.889H901.076V69.797Z" fill="white"/>
</g>
<defs>
<filter id="filter0_d_558_4" x="0" y="0" width="920" height="149" filterUnits="userSpaceOnUse" color-interpolation-filters="sRGB">
<feFlood flood-opacity="0" result="BackgroundImageFix"/>
<feColorMatrix in="SourceAlpha" type="matrix" values="0 0 0 0 0 0 0 0 0 0 0 0 0 0 0 0 0 0 127 0" result="hardAlpha"/>
<feOffset dy="5"/>
<feGaussianBlur stdDeviation="2.5"/>
<feComposite in2="hardAlpha" operator="out"/>
<feColorMatrix type="matrix" values="0 0 0 0 0 0 0 0 0 0 0 0 0 0 0 0 0 0 0.45 0"/>
<feBlend mode="normal" in2="BackgroundImageFix" result="effect1_dropShadow_558_4"/>
<feBlend mode="normal" in="SourceGraphic" in2="effect1_dropShadow_558_4" result="shape"/>
</filter>
</defs>
</svg>
